<?xml version="1.0" encoding="UTF-8" standalone="no"?><!DOCTYPE svg PUBLIC "-//W3C//DTD SVG 1.1//EN" "http://www.w3.org/Graphics/SVG/1.1/DTD/svg11.dtd"><svg width="100%" height="100%" viewBox="0 0 48 1731" version="1.1" xmlns="http://www.w3.org/2000/svg" xmlns:xlink="http://www.w3.org/1999/xlink" xml:space="preserve" xmlns:serif="http://www.serif.com/" style="fill-rule:evenodd;clip-rule:evenodd;stroke-linecap:round;stroke-linejoin:round;stroke-miterlimit:1.5;"><path d="M41.338,5.906l0,280.516l-35.432,0l-0,-280.516l35.432,-0Zm-35.432,561.033l-0,-245.112l35.432,-0l0,245.112l-35.432,-0Zm-0,280.476l-0,-245.072l35.432,0l0,245.072l-35.432,0Zm-0,280.517l-0,-245.072l35.432,-0l0,245.072l-35.432,-0Zm-0,280.516l-0,-245.072l35.432,0l0,245.072l-35.432,0Zm-0,315.961l-0,-280.516l35.432,-0l0,280.516l-35.432,0Z" style="fill:#ebcccc;stroke:#000;stroke-width:11.81px;"/><path d="M41.338,286.422l0,35.405l-35.432,-0l-0,-35.405l35.432,0Zm0,280.517l0,35.404l-35.432,0l-0,-35.404l35.432,-0Zm0,280.476l0,35.445l-35.432,-0l-0,-35.445l35.432,0Zm0,280.517l0,35.444l-35.432,0l-0,-35.444l35.432,-0Zm0,280.516l0,35.445l-35.432,-0l-0,-35.445l35.432,0Z" style="fill:#e4b9b9;stroke:#000;stroke-width:11.81px;"/></svg>