<?xml version="1.0" encoding="UTF-8" standalone="no"?><!DOCTYPE svg PUBLIC "-//W3C//DTD SVG 1.1//EN" "http://www.w3.org/Graphics/SVG/1.1/DTD/svg11.dtd"><svg width="100%" height="100%" viewBox="0 0 554 554" version="1.1" xmlns="http://www.w3.org/2000/svg" xmlns:xlink="http://www.w3.org/1999/xlink" xml:space="preserve" xmlns:serif="http://www.serif.com/" style="fill-rule:evenodd;clip-rule:evenodd;stroke-linecap:round;stroke-linejoin:round;stroke-miterlimit:1.5;"><path d="M506.456,360.937l-0,11.339l-19.842,-0l-0,-11.339l19.842,0Zm-175.75,89.762l-0,11.34l-19.842,-0l-0,-11.34l19.842,0Zm175.75,0l-0,11.34l-19.842,-0l-0,-11.34l19.842,0Zm-263.619,0l0,11.34l-19.842,-0l0,-11.34l19.842,0Zm219.211,-51.967l-0,19.842l-11.342,0l-0,-19.842l11.342,0Zm-0,-87.872l-0,19.842l-11.342,-0l-0,-19.842l11.342,-0Zm-307.079,139.839l-0,11.34l-19.843,-0l0,-11.34l19.843,0Zm263.605,-269.285l0,11.338l-19.842,-0l0,-11.338l19.842,-0Zm-263.605,-89.762l-0,11.338l-19.843,-0l0,-11.338l19.843,-0Zm263.605,179.524l0,11.338l-19.842,-0l0,-11.338l19.842,-0Zm0,179.523l0,11.34l-19.842,-0l0,-11.34l19.842,0Zm-263.605,-269.285l-0,11.338l-19.843,-0l0,-11.338l19.843,-0Zm-0,89.762l-0,11.338l-19.843,-0l0,-11.338l19.843,-0Zm351.487,-179.524l-0,11.338l-19.842,-0l-0,-11.338l19.842,-0Zm-87.882,-0l0,11.338l-19.842,-0l0,-11.338l19.842,-0Zm43.474,-44.408l-0,19.842l-11.342,-0l-0,-19.842l11.342,-0Zm44.408,223.932l-0,11.338l-19.842,-0l-0,-11.338l19.842,-0Zm-0,-89.762l-0,11.338l-19.842,-0l-0,-11.338l19.842,-0Zm-87.882,179.523l0,11.339l-19.842,-0l0,-11.339l19.842,0Zm-87.868,-269.285l-0,11.338l-19.842,-0l-0,-11.338l19.842,-0Zm-0,89.762l-0,11.338l-19.842,-0l-0,-11.338l19.842,-0Zm131.342,41.573l-0,19.842l-11.342,0l-0,-19.842l11.342,0Zm-0,-87.871l-0,19.842l-11.342,0l-0,-19.842l11.342,0Zm-179.527,263.616l0,19.842l-11.342,0l0,-19.842l11.342,0Zm48.185,-37.795l-0,11.339l-19.842,-0l-0,-11.339l19.842,0Zm-48.185,-313.693l0,19.842l-11.342,-0l0,-19.842l11.342,-0Zm0,175.743l0,19.842l-11.342,0l0,-19.842l11.342,0Zm-89.763,175.745l0,19.842l-11.342,0l0,-19.842l11.342,0Zm50.079,-217.318l0,11.338l-19.842,-0l0,-11.338l19.842,-0Zm-50.079,129.446l0,19.842l-11.342,-0l0,-19.842l11.342,-0Zm50.079,-219.208l0,11.338l-19.842,-0l0,-11.338l19.842,-0Zm0,269.285l0,11.339l-19.842,-0l0,-11.339l19.842,0Zm39.684,-50.077l0,19.842l-11.342,-0l0,-19.842l11.342,-0Zm0,-175.744l0,19.842l-11.342,0l0,-19.842l11.342,0Zm-89.763,-87.872l0,19.842l-11.342,-0l0,-19.842l11.342,-0Zm0,175.743l0,19.842l-11.342,0l0,-19.842l11.342,0Zm50.079,48.189l0,11.338l-19.842,-0l0,-11.338l19.842,-0Zm-87.868,89.761l-0,11.339l-19.843,-0l0,-11.339l19.843,0Zm37.789,125.668l0,19.842l-11.342,-0l0,-19.842l11.342,-0Zm-125.671,-125.668l0,11.339l-19.842,-0l0,-11.339l19.842,0Zm305.198,125.668l-0,19.842l-11.342,-0l-0,-19.842l11.342,-0Zm-179.527,-351.489l0,19.842l-11.342,0l0,-19.842l11.342,0Zm89.763,351.489l0,19.842l-11.342,-0l0,-19.842l11.342,-0Zm-179.526,-263.618l-0,19.842l-11.342,0l-0,-19.842l11.342,0Zm-35.908,-41.573l0,11.338l-19.842,-0l0,-11.338l19.842,-0Zm394.961,305.191l-0,19.842l-11.342,-0l-0,-19.842l11.342,-0Zm-394.961,-394.953l0,11.338l-19.842,-0l0,-11.338l19.842,-0Zm0,179.524l0,11.338l-19.842,-0l0,-11.338l19.842,-0Zm0,179.523l0,11.34l-19.842,-0l0,-11.34l19.842,0Zm35.908,-403.455l-0,19.842l-11.342,-0l-0,-19.842l11.342,-0Zm269.29,175.743l-0,19.842l-11.342,0l-0,-19.842l11.342,0Zm-0,-87.871l-0,19.842l-11.342,0l-0,-19.842l11.342,0Zm-0,175.744l-0,19.842l-11.342,-0l-0,-19.842l11.342,-0Zm-0,-263.616l-0,19.842l-11.342,-0l-0,-19.842l11.342,-0Zm-0,351.488l-0,19.842l-11.342,0l-0,-19.842l11.342,0Zm-41.579,-127.556l-0,11.338l-19.842,-0l-0,-11.338l19.842,-0Zm-227.711,215.429l-0,19.842l-11.342,-0l-0,-19.842l11.342,-0Zm-0,-175.745l-0,19.842l-11.342,-0l-0,-19.842l11.342,-0Zm-0,87.872l-0,19.842l-11.342,0l-0,-19.842l11.342,0Zm-0,-263.616l-0,19.842l-11.342,0l-0,-19.842l11.342,0Z" style="fill:none;stroke:#000;stroke-width:3.78px;"/><path d="M13.232,13.228l527.237,-0l0,527.233l-527.237,0l-0,-527.233Zm317.474,347.709l-19.842,0l-0,11.339l19.842,-0l-0,-11.339Zm-87.869,-179.523l-19.842,-0l0,11.338l19.842,-0l0,-11.338Zm-50.079,129.446l-11.342,-0l0,19.842l11.342,-0l0,-19.842Zm50.079,-219.208l-19.842,-0l0,11.338l19.842,-0l0,-11.338Zm0,269.285l-19.842,0l0,11.339l19.842,-0l0,-11.339Zm-175.75,0l-19.842,0l0,11.339l19.842,-0l0,-11.339Zm125.671,37.795l-11.342,0l0,19.842l11.342,0l0,-19.842Zm0,-263.616l-11.342,0l0,19.842l11.342,0l0,-19.842Zm89.763,351.489l-11.342,-0l0,19.842l11.342,-0l0,-19.842Zm0,-351.489l-11.342,0l0,19.842l11.342,0l0,-19.842Zm-179.526,87.871l-11.342,0l-0,19.842l11.342,0l-0,-19.842Zm269.29,263.618l-11.342,-0l-0,19.842l11.342,-0l-0,-19.842Zm-179.527,-439.361l-11.342,-0l0,19.842l11.342,-0l0,-19.842Zm89.763,263.616l-11.342,-0l0,19.842l11.342,-0l0,-19.842Zm-127.552,50.077l-19.843,0l0,11.339l19.843,-0l-0,-11.339Zm127.552,-313.693l-11.342,-0l0,19.842l11.342,-0l0,-19.842Zm0,175.743l-11.342,0l0,19.842l11.342,0l0,-19.842Zm-89.763,263.618l-11.342,-0l0,19.842l11.342,-0l0,-19.842Zm0,-263.618l-11.342,0l0,19.842l11.342,0l0,-19.842Zm50.079,48.189l-19.842,-0l0,11.338l19.842,-0l0,-11.338Zm129.448,-48.189l-11.342,0l-0,19.842l11.342,0l-0,-19.842Zm-0,-87.871l-11.342,0l-0,19.842l11.342,0l-0,-19.842Zm-0,263.616l-11.342,0l-0,19.842l11.342,0l-0,-19.842Zm89.763,87.873l-11.342,-0l-0,19.842l11.342,-0l-0,-19.842Zm-89.763,-439.361l-11.342,-0l-0,19.842l11.342,-0l-0,-19.842Zm-0,263.616l-11.342,-0l-0,19.842l11.342,-0l-0,-19.842Zm-305.198,-129.446l-19.842,-0l0,11.338l19.842,-0l0,-11.338Zm0,-89.762l-19.842,-0l0,11.338l19.842,-0l0,-11.338Zm35.908,-44.408l-11.342,-0l-0,19.842l11.342,-0l-0,-19.842Zm-35.908,223.932l-19.842,-0l0,11.338l19.842,-0l0,-11.338Zm0,179.523l-19.842,0l0,11.34l19.842,-0l0,-11.34Zm175.75,0l-19.842,0l0,11.34l19.842,-0l0,-11.34Zm263.619,-89.762l-19.842,0l-0,11.339l19.842,-0l-0,-11.339Zm-175.75,89.762l-19.842,0l-0,11.34l19.842,-0l-0,-11.34Zm131.342,-51.967l-11.342,0l-0,19.842l11.342,0l-0,-19.842Zm-0,-87.872l-11.342,-0l-0,19.842l11.342,-0l-0,-19.842Zm-307.079,139.839l-19.843,0l0,11.34l19.843,-0l-0,-11.34Zm263.605,-269.285l-19.842,-0l0,11.338l19.842,-0l0,-11.338Zm87.882,269.285l-19.842,0l-0,11.34l19.842,-0l-0,-11.34Zm-44.408,-315.583l-11.342,0l-0,19.842l11.342,0l-0,-19.842Zm-179.527,263.616l-11.342,0l0,19.842l11.342,0l0,-19.842Zm179.527,-175.745l-11.342,0l-0,19.842l11.342,0l-0,-19.842Zm-131.342,-131.335l-19.842,-0l-0,11.338l19.842,-0l-0,-11.338Zm-0,89.762l-19.842,-0l-0,11.338l19.842,-0l-0,-11.338Zm87.868,-89.762l-19.842,-0l0,11.338l19.842,-0l0,-11.338Zm43.474,-44.408l-11.342,-0l-0,19.842l11.342,-0l-0,-19.842Zm44.408,223.932l-19.842,-0l-0,11.338l19.842,-0l-0,-11.338Zm-0,-89.762l-19.842,-0l-0,11.338l19.842,-0l-0,-11.338Zm-87.882,179.523l-19.842,0l0,11.339l19.842,-0l0,-11.339Zm-263.605,-89.761l-19.843,-0l0,11.338l19.843,-0l-0,-11.338Zm351.487,-179.524l-19.842,-0l-0,11.338l19.842,-0l-0,-11.338Zm-87.882,359.047l-19.842,0l0,11.34l19.842,-0l0,-11.34Zm-263.605,-269.285l-19.843,-0l0,11.338l19.843,-0l-0,-11.338Zm-0,-89.762l-19.843,-0l0,11.338l19.843,-0l-0,-11.338Zm263.605,179.524l-19.842,-0l0,11.338l19.842,-0l0,-11.338Zm-315.579,39.684l-11.342,-0l-0,19.842l11.342,-0l-0,-19.842Zm-0,175.745l-11.342,-0l-0,19.842l11.342,-0l-0,-19.842Zm-0,-351.489l-11.342,0l-0,19.842l11.342,0l-0,-19.842Zm227.711,136.06l-19.842,-0l-0,11.338l19.842,-0l-0,-11.338Zm-227.711,127.556l-11.342,0l-0,19.842l11.342,0l-0,-19.842Z" style="fill:#b3c6e0;stroke:#000;stroke-width:3.78px;"/><path d="M1.89,1.89l34.026,-0l-0,11.338l-34.026,-0l-0,-11.338Zm538.579,-0l11.342,-0l0,34.016l-11.342,-0l0,-34.016Zm11.342,538.571l0,11.34l-34.026,-0l-0,-11.34l34.026,0Zm-538.579,11.34l-11.342,-0l-0,-34.016l11.342,-0l-0,34.016Z" style="fill:#ecf1d8;stroke:#000;stroke-width:3.78px;"/><path d="M517.785,1.89l22.684,-0l0,11.338l-22.684,-0l-0,-11.338Zm34.026,515.895l0,22.676l-11.342,0l0,-22.676l11.342,-0Zm-515.895,34.016l-22.684,-0l-0,-11.34l22.684,0l-0,11.34Zm-34.026,-515.895l-0,-22.678l11.342,-0l-0,22.678l-11.342,-0Z" style="fill:#ecf1d8;stroke:#000;stroke-width:3.78px;"/><path d="M35.916,1.89l55.737,-0l-0,11.338l-55.737,-0l-0,-11.338Zm67.079,-0l78.421,-0l0,11.338l-78.421,-0l-0,-11.338Zm89.763,-0l78.421,-0l0,11.338l-78.421,-0l0,-11.338Zm89.763,-0l78.422,-0l-0,11.338l-78.422,-0l0,-11.338Zm89.764,-0l78.421,-0l-0,11.338l-78.421,-0l-0,-11.338Zm89.763,-0l55.737,-0l-0,11.338l-55.737,-0l-0,-11.338Zm89.763,34.016l0,55.746l-11.342,-0l0,-55.746l11.342,-0Zm0,67.084l0,78.424l-11.342,-0l0,-78.424l11.342,-0Zm0,89.762l0,78.424l-11.342,-0l0,-78.424l11.342,-0Zm0,89.762l0,78.423l-11.342,0l0,-78.423l11.342,-0Zm0,89.762l0,78.423l-11.342,0l0,-78.423l11.342,-0Zm0,89.763l0,55.746l-11.342,-0l0,-55.746l11.342,-0Zm-34.026,89.762l-55.737,-0l-0,-11.34l55.737,0l-0,11.34Zm-67.079,-0l-78.421,-0l-0,-11.34l78.421,0l-0,11.34Zm-89.763,-0l-78.422,-0l0,-11.34l78.422,0l-0,11.34Zm-89.764,-0l-78.421,-0l0,-11.34l78.421,0l0,11.34Zm-89.763,-0l-78.421,-0l-0,-11.34l78.421,0l0,11.34Zm-89.763,-0l-55.737,-0l-0,-11.34l55.737,0l-0,11.34Zm-89.763,-34.016l-0,-55.746l11.342,-0l-0,55.746l-11.342,-0Zm-0,-67.086l-0,-78.423l11.342,-0l-0,78.423l-11.342,0Zm-0,-89.762l-0,-78.423l11.342,-0l-0,78.423l-11.342,0Zm-0,-89.761l-0,-78.424l11.342,-0l-0,78.424l-11.342,-0Zm-0,-89.762l-0,-78.424l11.342,-0l-0,78.424l-11.342,-0Zm-0,-89.762l-0,-55.746l11.342,-0l-0,55.746l-11.342,-0Z" style="fill:#e4ebc7;stroke:#000;stroke-width:3.78px;"/><path d="M102.995,1.89l-0,11.338l-11.342,-0l-0,-11.338l11.342,-0Zm89.763,-0l0,11.338l-11.342,-0l0,-11.338l11.342,-0Zm89.763,-0l0,11.338l-11.342,-0l0,-11.338l11.342,-0Zm89.764,-0l-0,11.338l-11.342,-0l-0,-11.338l11.342,-0Zm89.763,-0l-0,11.338l-11.342,-0l-0,-11.338l11.342,-0Zm89.763,89.762l0,11.338l-11.342,-0l0,-11.338l11.342,-0Zm0,89.762l0,11.338l-11.342,-0l0,-11.338l11.342,-0Zm0,89.762l0,11.338l-11.342,-0l0,-11.338l11.342,-0Zm0,89.761l0,11.339l-11.342,-0l0,-11.339l11.342,0Zm0,89.762l0,11.34l-11.342,-0l0,-11.34l11.342,0Zm-89.763,101.102l-11.342,-0l-0,-11.34l11.342,0l-0,11.34Zm-89.763,-0l-11.342,-0l-0,-11.34l11.342,0l-0,11.34Zm-89.764,-0l-11.342,-0l0,-11.34l11.342,0l0,11.34Zm-89.763,-0l-11.342,-0l0,-11.34l11.342,0l0,11.34Zm-89.763,-0l-11.342,-0l-0,-11.34l11.342,0l-0,11.34Zm-101.105,-101.102l11.342,0l-0,11.34l-11.342,-0l-0,-11.34Zm-0,-89.762l11.342,0l-0,11.339l-11.342,-0l-0,-11.339Zm-0,-89.761l11.342,-0l-0,11.338l-11.342,-0l-0,-11.338Zm-0,-89.762l11.342,-0l-0,11.338l-11.342,-0l-0,-11.338Zm-0,-89.762l11.342,-0l-0,11.338l-11.342,-0l-0,-11.338Z" style="fill:#dae4b4;stroke:#000;stroke-width:3.78px;"/></svg>