<?xml version="1.0" encoding="UTF-8" standalone="no"?><!DOCTYPE svg PUBLIC "-//W3C//DTD SVG 1.1//EN" "http://www.w3.org/Graphics/SVG/1.1/DTD/svg11.dtd"><svg width="100%" height="100%" viewBox="0 0 1746 784" version="1.1" xmlns="http://www.w3.org/2000/svg" xmlns:xlink="http://www.w3.org/1999/xlink" xml:space="preserve" xmlns:serif="http://www.serif.com/" style="fill-rule:evenodd;clip-rule:evenodd;stroke-linejoin:round;stroke-miterlimit:2;"><g><g><path d="M1022.33,737.021l-1022.33,-0l0,-26.042l1010.79,0l11.545,26.042Z"/><path d="M1111.48,710.979l565.966,0l-0,26.042l-577.256,-0l11.29,-26.042Z"/></g><g><path d="M1527.17,694.851l0,-188.293l-140.294,-259.094l90.656,-0l90.133,177.002l88.304,-177.002l89.089,-0l-140.817,259.704l-0,187.683l-77.071,0Z" style="fill-rule:nonzero;"/><path d="M1222.29,694.851l-0,-371.704l-11.241,0l0,-75.683l88.572,-0l0,372.009l192.285,-0l-0,75.378l-269.616,0Z" style="fill-rule:nonzero;"/><g><g><path d="M1082.61,253.714l125.314,-0l0,63.183l-114.455,0l0,377.954l-31.986,75.689l-32.846,-75.689l0,-377.954l-113.646,0l0,-63.183l124.099,-0l0,-112.893c0,0 8.287,-74.79 6.758,-75.469c-11.197,-4.973 -15.926,-13.391 -15.926,-26.823c-0,-17.97 14.058,-32.559 31.373,-32.559c0.051,0 0.102,0 0.152,0.001c17.246,0.085 31.221,14.641 31.221,32.558c-0,13.652 -4.988,22.227 -16.48,27.062c-1.555,0.655 6.422,75.23 6.422,75.23l0,112.893Z" style="fill:#f6b76f;"/><path d="M1031.91,634.247l0,-6.507c24.841,-7.651 35.852,-10.54 62.536,-18.891l-0,4.388c-10.082,3.304 -14.07,4.396 -23.843,7.584c12.381,-3.465 6.229,-0.807 -38.693,13.426Zm61.948,-243.533l-0,3.032c-23.621,8.298 -34.071,12.122 -61.948,21.566l0,-5.035c26.582,-8.427 37.418,-11.687 61.948,-19.563Zm-21.699,-298.662c-15.412,4.505 -13.74,3.626 -0.106,-1.046l0.106,1.046Zm1.355,117.143c-9.155,2.941 -23.197,7.463 -32.211,10.364l-0.003,-1.416c9.928,-3.276 30.353,-9.957 40.954,-13.43l0,2.484c-2.204,0.742 -9.531,3.166 -11.639,3.882c0.089,-0.391 1.103,-1.032 2.899,-1.884Zm-25.239,-147.218l43.412,-14.021c-0.051,0.297 -0.105,0.594 -0.162,0.889l-42.616,13.74c-0.213,-0.2 -0.425,-0.403 -0.634,-0.608Zm-0.664,-0.667c-0.357,-0.367 -0.707,-0.742 -1.049,-1.124c-0.247,-0.274 -0.49,-0.553 -0.728,-0.834c16.73,-6.222 28.763,-10.568 37.806,-12.993c22.932,-6.195 -9.976,6.078 -36.029,14.951Zm0.664,0.667l-3.534,1.142c-1.011,0.072 -1.29,-0.118 -1.598,-0.298c1.458,-0.489 2.951,-0.994 4.468,-1.511c0.025,0.025 0.049,0.05 0.073,0.075c0.195,0.199 0.392,0.397 0.591,0.592Zm-16.365,311.091l0,-6.039l61.948,-19.907l-0,6.04l-61.948,19.906Zm9.336,-178.784l-0.007,-3.307c4.889,-1.658 14.626,-4.824 16.85,-5.462c0.979,-0.282 1.697,-0.478 2.186,-0.6c0.571,-0.189 1.14,-0.377 1.707,-0.564l20.272,-6.574l0,3.41c-10.292,3.267 -30.722,9.832 -41.008,13.097Zm-9.336,370.352l0,-3.777l61.948,-20.828l-0,3.712c-24.695,8.056 -35.23,12.292 -61.948,20.893Zm50.344,-320.958l0,6.08c-67.369,21.663 -110.041,38.79 -163.823,56.12l-0,-5.778c58.509,-18.722 111.654,-39.406 163.823,-56.422Zm-72.755,38.703c-21.301,7.786 -49.333,20.411 -91.068,33.894l-0,-0.971l91.068,-32.923Zm31.66,-127.032l-0.008,-3.576l35.883,-11.59l0.055,0.545l-0,3.142c-9.962,3.195 -25.294,8.102 -35.93,11.479Zm29.77,-75.442l0.506,4.994c-6.845,2.203 -17.927,5.805 -24.586,7.954l0.546,-5.316l23.534,-7.632Zm11.325,158.175l0,2.927c-46.188,13.924 -100.576,34.775 -163.823,55.16l-0,-2.394c23.966,-7.603 39.116,-15.951 63.36,-23.66c0.885,-1.09 28.691,-9.914 46.671,-15.91l53.792,-17.4l0,0.747c-32.737,10.545 -69.438,22.439 -98.154,31.829c30.792,-9.791 66.963,-21.356 98.154,-31.299Zm-122.695,43.446c18.139,-6.04 46.257,-14.95 46.692,-15.91c-18.19,6.056 -46.312,14.968 -46.692,15.91Zm21.633,4.242l101.062,-32.808l12.28,0c-65.68,21.164 -107.649,38.129 -176.103,60.04l-0,-3.623c-0,0 60.95,-22.903 62.729,-23.598c0.022,-0.008 0.032,-0.012 0.032,-0.011Zm-40.705,29.873c-0,-0 130.765,-45.596 146.422,-54.118c19.895,-5.754 19,-4.849 32.333,-8.563l17.781,0c-43.124,15.307 -93.499,31.262 -190.724,62.681l-5.812,-0Zm153.959,281.482l-0,6.64c-24.823,8.067 -35.939,11.298 -62.536,19.843l0,-6.895c25.978,-8.364 37.058,-11.505 62.536,-19.588Zm-12.192,-446.877c-10.763,3.454 -31.124,10.053 -41.076,13.281l-0.012,-5.152c10.311,-3.38 30.788,-10.073 41.088,-13.449l0,5.32Zm-36.526,576.436c18.164,-5.778 20.576,-6.539 38.858,-12.349l-2.332,5.379c-17.208,5.679 -17.976,6.115 -34.504,11.53l-2.022,-4.56Zm-13.818,-342.74l61.948,-19.906l-0,2.624c-22.882,7.796 -33.699,11.49 -61.948,20.831l0,-3.549Zm9.234,-235.313c10.411,-3.342 25.653,-8.236 35.59,-11.41l0.114,1.126c-9.847,3.128 -25.094,7.991 -35.701,11.357l-0.003,-1.073Zm0.176,78.596c9.544,-3.094 30.173,-9.784 40.934,-13.257l0,1.056c-9.731,3.126 -30.08,9.699 -40.932,13.166l-0.002,-0.965Zm40.934,-6.828c-3.222,0.979 -3.532,1.003 0,-0.229l0,0.229Zm-40.926,10.342c9.265,-3.054 30.32,-9.881 40.926,-13.32l0,0.786c-10.713,3.418 -31.354,10.073 -40.925,13.162l-0.001,-0.628Zm0.033,14.606c9.878,-3.154 30.29,-9.708 40.893,-13.049l0,2.59c-8.212,2.709 -21.904,7.236 -30.795,10.213c7.658,-3.325 -0.654,-1.09 -10.095,1.73l-0.003,-1.484Zm40.893,6.511c-22.771,7.334 -30.247,9.845 -49.343,16.122c1.27,-1.397 17.407,-6.794 49.343,-17.002l0,0.88Zm-50.344,279.635c5.959,-1.959 3.066,-0.951 8.907,-2.878c-2.97,2.101 -0.207,2.074 -8.907,5.718l0,-2.84Zm57.787,-508.01c-14.47,5.277 -27.908,9.662 -59.154,19.76c-0.068,-0.384 -0.13,-0.77 -0.186,-1.157c28.405,-9.26 41.496,-13.485 58.968,-19.318c0.126,0.237 0.25,0.475 0.372,0.715Zm-45.514,33.78c20.044,-6.393 26.427,-8.391 45.762,-14.66c-19.845,6.64 -26.012,8.779 -45.389,15.159c-0.126,-0.165 -0.25,-0.331 -0.373,-0.499Zm37.877,-44.322c-21.099,6.658 -27.927,9.189 -50.138,16.247c0.085,-0.44 0.178,-0.877 0.277,-1.311c24.622,-8.045 33.273,-11.353 48.632,-16.069c0.418,0.369 0.828,0.747 1.229,1.133Zm-10.125,76.898c-7.098,2.275 -18.507,5.972 -25.623,8.252l0.131,-1.277c7.408,-2.308 18.751,-5.905 25.395,-7.938l0.097,0.963Zm-24.185,-12.313c6.038,-1.968 17.127,-5.627 24.925,-8.228c1.076,-0.015 -11.53,4.358 -24.297,8.666c0,0 -0.41,-0.38 -0.628,-0.438Zm-5.029,55.54l0.175,-1.7c6.116,-2.523 19.889,-7.35 32.081,-11.489l0.269,2.653l-32.525,10.536Zm-8.373,-111.769c20.599,-6.402 25.336,-7.88 21.032,-5.545l-21.816,7.519c0.244,-0.667 0.505,-1.325 0.784,-1.974Zm41.475,106.931c-2.984,0.975 -6.016,1.964 -9.094,2.966c-9.404,2.057 -3.835,-0.188 8.938,-4.503l0.156,1.537Zm0.457,4.51c-3.184,0.931 -3.546,0.956 -0.026,-0.255l0.026,0.255Zm-34.483,9.33c6.479,-2.332 21.903,-7.497 25.674,-8.577c11.351,-3.265 -16.866,6.461 -25.68,9.207l-0.001,-0.557l0.007,-0.073Zm47.044,-84.77c-13.978,4.698 -17.722,5.887 -38.705,12.598c-0.338,-0.195 -0.673,-0.394 -1.004,-0.598l40.125,-12.96c-0.134,0.322 -0.273,0.642 -0.416,0.96Zm-14.576,55.541c-8.557,2.757 -21.598,6.986 -30.477,9.836l0.1,-0.97l30.281,-9.811l0.096,0.945Zm1.182,-39.018c-10.203,3.278 -17.319,5.506 -27.542,8.754l0.064,-0.625c9.717,-3.257 17.886,-5.962 30.191,-10.022c-0.876,0.669 -1.781,1.3 -2.713,1.893Zm-30.124,33.908l12.512,-4.072l0.494,1.531l-13.186,4.289l0.18,-1.748Zm40.545,-45.351l-37.96,12.384c-0.371,-0.146 0.044,-1.703 0.044,-1.703c-0,-0 15.134,-4.489 38.704,-11.952c-0.255,0.429 -0.517,0.853 -0.788,1.271Zm-44.582,149.746c11.165,-3.571 31.878,-10.27 40.968,-13.245l0,0.809c-10.27,3.292 -30.706,9.89 -40.966,13.179l-0.002,-0.743Zm-74.27,103.519l196.906,-62.681l11.284,0c-71.511,23.432 -114.699,36.307 -197.148,62.681l-11.042,-0Zm115.238,-154.016l-0.194,0.064c0.016,-0.04 0.082,-0.094 0.194,-0.161l0,0.097Zm-40.945,60.562l40.945,-13.251l0,0.845l-40.943,13.25l-0.002,-0.844Zm0.005,2.525l40.94,-13.249l0,0.902c-10.243,3.278 -30.716,9.881 -40.938,13.152l-0.002,-0.805Zm-9.404,193.945c18.871,-6.1 28.159,-9.021 44.976,-14.531c-2.056,1.717 -15.18,6.074 -44.976,15.66l0,-1.129Zm0,13.65c18.114,-6.201 36.005,-11.689 61.948,-20.142l-0,0.314c-12.499,4.677 -32.447,10.839 -61.948,20.391l0,-0.563Zm0,-3.564c13.305,-4.297 15.964,-5.06 24.492,-7.856c-10.493,4.403 -12.607,5.552 -24.492,9.681l0,-1.825Zm0,-3.078l61.948,-19.907l-0,1.48c-25.257,8.121 -35.942,11.391 -61.948,19.714l0,-1.287Zm0,9.01c26.834,-8.626 37.618,-11.99 61.948,-19.897l-0,1.381c-12.578,4.306 -22.017,7.486 -40.183,13.398c-8.258,3.4 -11.131,4.439 -21.765,7.827l0,-2.709Zm-0.737,-112.927l177.48,-57.341l-0,0.867c-59.079,19.269 -110.652,35.887 -177.48,57.381l-0,-0.907Zm0.737,94.342c11.693,-3.783 14.766,-4.677 26.823,-8.591c8.503,-3.238 17.711,-6.32 35.125,-11.955l-0,1.197c-13.324,4.316 -21.118,6.797 -33.964,10.982c-12.752,4.548 -16.057,5.751 -27.984,9.733l0,-1.366Zm0,26.107c22.803,-7.272 36.75,-11.573 51.896,-16.644l10.052,-3.257l-0,0.948c-25.339,8.138 -36.447,11.536 -61.948,19.722l0,-0.769Zm176.743,-137.243c-4.602,1.519 -9.127,3.017 -13.16,4.384c0.136,-0.593 5.571,-2.609 13.16,-5.201l-0,0.817Zm-215.493,10.687c14.088,-4.692 12.003,-3.019 26.703,-7.883l169.608,-54.798l4.486,0c-33.349,10.89 -53.411,17.286 -91.177,29.365c-14.378,4.919 -56.723,18.262 -54.236,17.355c-25.191,8.074 -29.665,8.558 -52.366,15.961l-3.018,-0Zm38.75,17.932c26.042,-9.584 49.134,-17.304 79.22,-26.596c11.38,-3.7 23.764,-7.688 34.425,-11.179c-0.999,0.606 -4.916,2.051 -10.645,4.017c12.551,-3.678 24.357,-6.961 34.768,-9.639l38.975,-12.606l-0,1.302l-176.743,56.992l0,-2.291Zm176.743,-49.118c-13.94,5.635 -52.343,17.556 -83.657,27.851c6.519,-3.784 48.782,-16.873 83.657,-28.306l-0,0.455Zm-114.795,69.41l-0,0.904c-25.887,8.305 -36.762,11.647 -61.948,19.75l0,-0.748l61.948,-19.906Zm-61.948,34.787c7.298,-2.416 6.249,-2.002 12.724,-4.202l49.224,-15.909l-0,1.334c-26.799,8.534 -38.437,12.057 -61.948,19.706l0,-0.929Zm0,-6.482c19.593,-6.516 37.162,-11.896 57.787,-18.685c-5.154,3 -27.678,10.076 -57.787,19.794l0,-1.109Zm176.743,-110.995c-77.956,24.961 -135.893,42.966 -177.09,55.947c43.858,-16.204 82.357,-29.264 128.216,-43.99c10.172,-3.385 24.819,-8.194 48.874,-16.046l-0,4.089Zm-176.743,94.193l61.948,-19.906l-0,1.411c-25.605,8.199 -36.398,11.482 -61.948,19.666l0,-1.171Zm61.948,44.033c-6.579,2.343 -10.188,3.652 -13.76,4.671c-10.913,3.135 4.221,-2.312 13.76,-5.341l-0,0.67Zm114.795,-145.938c-78.575,26.181 -181.395,59.405 -178.296,55.128c83.274,-26.212 126.583,-40.536 178.296,-57.04l-0,1.912Zm-114.795,68.932c-16.558,4.791 -21.731,5.093 -0,-2.014l-0,2.014Zm-61.948,60.181c11.569,-4.005 25.947,-8.624 61.948,-20.253l-0,0.983l-61.948,19.907l0,-0.637Zm-98.969,-76.935l9.558,-6.629c67.728,-22.505 46.743,-11.513 -9.558,6.629Zm190.651,2.501c13.13,-4.296 13.484,-4.35 26.407,-8.586l58.654,-18.963l-0,0.912c-27.903,9.202 -49.014,15.679 -83.032,26.637l-2.029,0Zm-91.682,78.421c7.356,-2.375 6.517,-1.987 15.101,-4.753l46.847,-15.141l-0,2.037c-26.996,8.649 -37.863,12.027 -61.948,19.894l0,-2.037Zm167.368,-136.587c-1.843,0.59 -3.707,1.187 -5.593,1.791c-11.377,3.274 -7.522,1.781 5.593,-2.603l-0,0.812Zm-217.551,55.665c21.425,-6.827 23.794,-6.931 37.375,-11.504l117.062,-37.417c-23.944,9.183 -83.583,26.971 -151.981,48.921l-2.456,-0Zm42.133,-2.313c45.521,-14.499 60.09,-18.124 92.318,-28.322c-2.825,2.433 -39.936,12.92 -87.901,28.322l-4.417,0Zm-45.606,-58.424c-16.687,5.727 -30.512,8.77 -59.823,18.123l-0,-0.77c6.535,-2.118 15.01,-4.908 20.947,-6.854l36.487,-10.499l2.389,-0Zm34.819,-0c-20.972,6.523 -31.315,11.125 -55.983,18.979c15.614,-6.116 17.402,-7.968 51.662,-18.979l4.321,-0Zm18.837,85.169c37.448,-12.071 118.067,-38.993 143.223,-47.155c7.88,-3.033 19.718,-6.814 33.52,-11.445l-0,2.346c-88.124,27.716 -77.485,24.964 -176.743,57.028l0,-0.774Zm61.948,-11.648c-7.559,2.451 -31.658,11.402 -37.718,13.421c1.499,-0.911 26.757,-10.398 37.718,-14.029l-0,0.608Zm-0,56.551c-22.392,7.367 -33.577,11.019 -60.68,19.737c-10.466,1.681 14.003,-6.408 53.993,-19.227c-2.435,0.471 -5.667,1.18 6.687,-2.971l-0,2.461Zm-0,103.945c-13.644,4.477 -23.692,7.697 -37.474,12.215c2.485,-1.502 16.095,-5.975 37.474,-12.907l-0,0.692Zm0.588,104.583c-8.878,2.967 -13.299,4.173 -21.608,6.989c0.174,-0.908 7.443,-3.164 21.608,-7.839l-0,0.85Zm-54.111,121.415c19.639,-6.551 24.964,-8.248 49.362,-16.08l-1.48,3.413c-23.301,7.363 -28.034,8.61 -47.066,14.508l-0.816,-1.841Zm53.523,-274.103c-13.467,4.15 -13.137,3.592 -5.115,0.021c3.825,-1.18 1.138,-0.271 5.115,-1.506l-0,1.485Zm-61.948,59.559c25.103,-8.036 35.532,-11.2 61.948,-19.62l-0,4.476c-17.277,5.488 -26.897,8.571 -38.559,12.547c-11.443,3.414 -13.273,3.64 -23.389,6.681l0,-4.084Zm0,-18.48c28.928,-9.304 41.302,-13.163 61.948,-19.857l-0,0.592c-14.467,5.074 -22.324,7.79 -37.718,12.803c-9.136,3.12 -12.302,4.047 -24.23,7.916l0,-1.454Zm0,58.184c25.586,-8.31 36.122,-11.61 61.948,-19.915l-0,0.95l-61.948,19.907l0,-0.942Zm61.948,27.965c-14.454,5.053 -32.528,11.654 -51.639,17.957c2.908,-2.238 25.882,-10.445 51.639,-18.821l-0,0.864Zm-0,-143.761l-0,0.735l-9.256,2.999c2.766,-1.093 1.758,-1.035 9.256,-3.734Zm-61.948,32.702c24.228,-8.053 35.311,-11.662 61.948,-20.295l-0,1.745c-25.464,8.177 -36.571,11.578 -61.948,19.73l0,-1.18Zm0,121.268c4.954,-1.43 1.468,0.031 7.308,-1.542c-1.653,1.862 0.862,1.468 -7.308,4.266l0,-2.724Zm62.536,44.958c-6.547,2.127 -7.028,2.059 -12.97,4.026c1.368,-1.061 2.788,-1.574 12.97,-5.008l-0,0.982Zm-62.536,-113.806c9.793,-3.344 14.341,-4.687 24.519,-8.129l37.429,-12.099l-0,1.443c-22.588,7.366 -39.448,12.261 -61.948,19.602l0,-0.817Zm0,-59.458c11.512,-3.883 16.179,-5.356 29.206,-9.536c-8.136,2.203 18.407,-6.948 24.668,-8.734c8.429,-2.429 -2.523,1.501 -12.359,4.819c10.25,-3.231 13.105,-4.008 20.433,-6.134l-0,1.998c-20.273,5.886 -29.575,8.378 -61.948,18.849l0,-1.262Zm0,16.755l61.948,-19.906l-0,0.459c-18.662,6.448 -30.905,10.404 -61.948,20.414l0,-0.967Zm0,68.052l8.58,-2.66c47.632,-14.712 26.739,-7.585 -8.58,3.99l0,-1.33Zm0,24.003l61.948,-20.791l-0,1.596c-24.752,8.065 -35.547,12.363 -61.948,20.869l0,-1.674Zm0,26.186l61.948,-20.828l-0,0.857l-49.767,17.006c-0.908,0.745 -4.38,2.197 -12.181,4.751l0,-1.786Zm62.536,42.015c-15.202,4.887 -23.337,7.311 -35.336,11.337c0.269,-1.217 17.503,-6.434 35.336,-12.391l-0,1.054Zm-62.536,-56.29l19.084,-6.052c1.859,0.481 -1.521,1.79 -19.084,7.503l0,-1.451Zm0,98.518c6.532,-1.896 4.178,-0.733 10.513,-2.393c-5.646,2.09 -3.328,1.45 -10.513,3.954l0,-1.561Zm0,-5.684c5.395,-1.704 2.403,-0.575 8.634,-2.526c-5.365,2.15 -2.501,1.424 -8.634,3.631l0,-1.105Zm0,-192.94c18.175,-6.106 32.589,-11.425 61.948,-21.475l-0,1.851c-24.003,8.15 -34.187,11.654 -61.948,20.82l0,-1.196Zm61.948,29.984c-23.011,7.398 -38.248,12.359 -57.503,18.747c1.142,-1.912 24.178,-9.378 57.503,-19.959l-0,1.212Zm-0,-33.014c-22.768,7.362 -34.218,10.986 -62.295,19.688c8.068,-3.515 26.732,-9.701 62.295,-21.116l-0,1.428Zm-61.948,218.993c19.6,-3.881 10.721,-0.19 39.587,-9.877c-5.719,2.84 -17.18,6.87 -39.587,14.251l0,-4.374Zm61.948,-211.337c-25.302,8.055 -45.308,14.182 -61.948,19.905c0.256,-1.327 25.341,-9.203 43.5,-15.358l18.448,-5.968l-0,1.421Zm-0,30.514c-5.453,1.798 -4.31,1.475 -9.065,3.083c0.123,-0.642 0.179,-0.92 9.065,-3.92l-0,0.837Zm-61.948,22.653c6.165,-1.996 2.637,-0.756 6.697,-2.091c8.475,-3.09 26.086,-9.264 55.251,-19.032l-0,2.478l-61.948,19.907l0,-1.262Zm2.894,170.403l57.951,-18.717l-0,1.273l-57.457,18.558l-0.494,-1.114Zm59.642,-78.845c-9.073,3.89 -14.205,3.756 -37.588,11.411c4.457,-2.776 27.599,-10.016 37.588,-12.462l-0,1.051Zm-62.536,38.602l7.131,-2.191c-4.841,1.77 -1.373,0.717 -7.131,2.733l0,-0.542Zm0.542,-52.773c0.255,-1.327 19.657,-7.25 37.762,-13.373c-0.31,1.345 -19.66,7.222 -37.762,13.373Zm161.505,-320.51c4.5,0.375 -83.105,27.213 -117.053,38.645c0.379,-0.941 28.494,-9.86 46.688,-15.918l70.365,-22.727Zm-30.352,-13.858c12.261,-3.522 -16.675,6.471 -23.237,8.363c-12.258,3.511 16.679,-6.473 23.237,-8.363Zm35.289,29.143c-0.369,0.948 -28.491,9.869 -46.669,15.931c0.422,-0.956 28.538,-9.885 46.669,-15.931Zm-145.842,190.303c0.296,-1.34 21.861,-8.083 39.972,-14.208c-0.268,1.331 -21.828,8.044 -39.972,14.208Zm-11.012,227.944c17.318,-5.849 21.087,-7.191 45.62,-15.227l-1.004,2.315c-18.832,6.433 -19.771,7.047 -43.75,14.866l-0.866,-1.954Zm49.647,-429.229c-3.476,2.114 -42.567,14.463 -70.121,23.496c3.481,-2.115 42.57,-14.454 70.121,-23.496Zm-40.228,451.243c11.974,-3.923 12.346,-4.001 26.701,-8.565l-0.886,2.044c-12.479,4.209 -11.872,4.176 -24.92,8.539l-0.895,-2.018Zm18.534,-277.815c-0.435,0.96 -19.759,6.918 -37.896,12.966c0.377,-0.95 19.705,-6.909 37.896,-12.966Z" style="fill:#dc9342;"/></g><g id="Layer1"><g><path d="M1068,677.431l-6.511,15.016l-6.51,-14.685l-0,-307.454l6.51,-14.686l6.511,15.016l-0,306.793Z"/><path d="M908.743,247.464l305.433,-0l0,75.683l-114.455,0l0,371.704l-38.236,88.189l-39.096,-88.189l0,-371.704l-113.646,0l0,-75.683Zm13.021,13.02l-0,49.642l113.646,0l0,381.968c0,0 25.943,58.519 25.943,58.519l25.347,-58.463l0,-382.024l114.455,0c0,0 0,-49.642 0,-49.642l-279.391,0Z"/></g><path d="M1032.56,247.493l-0.238,-106.643c-0.001,-0.453 0.021,-0.907 0.068,-1.358l6.616,-64.446c0.385,-3.752 2.378,-7.153 5.463,-9.322c3.086,-2.17 6.96,-2.894 10.621,-1.987c1.91,0.473 3.904,0.731 5.954,0.751c0.01,0 0.077,0.001 0.1,0.001c0.022,-0 0.124,-0.001 0.153,-0.001c1.955,0 3.86,-0.216 5.691,-0.629c3.636,-0.821 7.449,-0.044 10.474,2.134c3.025,2.177 4.971,5.547 5.347,9.255l6.508,64.261c0.044,0.436 0.066,0.874 0.066,1.312l0,106.643c0,7.191 -5.829,13.02 -13.021,13.02l-30.781,0c-7.18,0 -13.005,-5.811 -13.021,-12.991Zm13.021,-0.029l30.781,-0l0,-106.643l-6.508,-64.261c-2.753,0.621 -5.617,0.949 -8.557,0.949c-0.061,0.001 -0.122,0.001 -0.183,0.001c-0.065,-0.001 -0.129,-0.001 -0.194,-0.002c-3.086,-0.029 -6.087,-0.42 -8.962,-1.133l-6.616,64.446l0.239,106.643Z"/><path d="M1051.96,76.375c-2.028,-0.502 -3.993,-1.165 -5.882,-1.973c-13.832,-5.92 -23.534,-19.66 -23.534,-35.647c-0,-21.39 17.365,-38.755 38.755,-38.755c21.389,0 38.755,17.365 38.755,38.755c-0,16.249 -10.023,30.177 -24.218,35.932c-1.921,0.779 -3.919,1.408 -5.98,1.873c-2.753,0.621 -5.617,0.949 -8.557,0.949c-0.061,0.001 -0.122,0.001 -0.183,0.001c-0.065,-0.001 -0.129,-0.001 -0.194,-0.002c-3.086,-0.029 -6.087,-0.42 -8.962,-1.133Zm3.132,-12.638c1.91,0.473 3.904,0.731 5.969,0.751c0,0 0.062,0.001 0.085,0.001c0.022,-0 0.044,-0 0.109,-0.001l0.044,0c1.955,0 3.86,-0.216 5.691,-0.629c1.362,-0.308 2.683,-0.724 3.954,-1.239c9.429,-3.823 16.089,-13.072 16.089,-23.865c-0,-14.203 -11.531,-25.734 -25.734,-25.734c-14.203,-0 -25.734,11.531 -25.734,25.734c-0,10.62 6.448,19.744 15.636,23.676c1.25,0.535 2.55,0.973 3.865,1.299l0.026,0.007Z"/></g></g><path d="M676.298,694.851l0,-447.387l235.81,-0l-0,75.683l-158.478,0l0,105.896l133.136,0l-0,75.684l-133.136,-0l0,190.124l-77.332,0Z" style="fill-rule:nonzero;"/><g><rect x="352.779" y="247.464" width="291.3" height="75.684" style="fill-rule:nonzero;"/><path d="M352.779,455.029c0,-8.672 3.446,-16.99 9.578,-23.122c6.132,-6.133 14.45,-9.578 23.122,-9.578c71.805,0 236.916,0 236.916,0l0,75.379l-174.198,-0c-9.989,-0 -18.086,8.097 -18.086,18.085c0,33.916 0,103.68 0,103.68l213.969,-0l-0,75.378l-291.301,0l0,-239.822Z" style="fill-rule:nonzero;"/></g><path d="M0,247.464l141.339,-0c31.873,-0 56.17,2.848 72.891,8.545c22.468,7.731 41.713,21.464 57.737,41.198c16.024,19.735 28.216,43.895 36.576,72.479c8.36,28.585 12.54,63.833 12.54,105.744c0,36.824 -3.919,68.563 -11.756,95.215c-9.58,32.552 -23.252,58.899 -41.017,79.04c-13.412,15.259 -31.525,27.161 -54.342,35.706c-17.068,6.307 -39.885,9.46 -68.449,9.46l-145.519,0l0,-447.387Zm77.332,75.683l-0,296.326l57.737,-0c21.597,-0 37.186,-1.424 46.765,-4.273c12.54,-3.662 22.947,-9.867 31.22,-18.615c8.273,-8.749 15.022,-23.143 20.247,-43.183c5.225,-20.04 7.838,-47.353 7.838,-81.939c-0,-34.587 -2.613,-61.137 -7.838,-79.651c-5.225,-18.514 -12.54,-32.959 -21.945,-43.335c-9.405,-10.376 -21.336,-17.395 -35.792,-21.057c-10.799,-2.849 -31.96,-4.273 -63.485,-4.273l-34.747,0Z" style="fill-rule:nonzero;"/></g></g></svg>