<?xml version="1.0" encoding="UTF-8" standalone="no"?><!DOCTYPE svg PUBLIC "-//W3C//DTD SVG 1.1//EN" "http://www.w3.org/Graphics/SVG/1.1/DTD/svg11.dtd"><svg width="100%" height="100%" viewBox="0 0 635 732" version="1.1" xmlns="http://www.w3.org/2000/svg" xmlns:xlink="http://www.w3.org/1999/xlink" xml:space="preserve" xmlns:serif="http://www.serif.com/" style="fill-rule:evenodd;clip-rule:evenodd;stroke-linecap:round;stroke-linejoin:round;stroke-miterlimit:1.5;"><path d="M630.461,546.55l-313.147,180.795l-0,-180.795l156.577,-90.397l156.57,-90.398l-0,180.795Z" style="fill:#e4ebc7;stroke:#000;stroke-width:8.33px;"/><path d="M4.167,546.55l-0,-180.795l156.576,90.399l156.571,90.396l-0,180.795l-313.147,-180.795Z" style="fill:#dae4b4;stroke:#000;stroke-width:8.33px;"/><path d="M160.744,456.153l156.57,-90.398l156.577,90.398l-156.577,90.397l-156.57,-90.397Z" style="fill:#ecf1d8;stroke:#000;stroke-width:8.33px;"/><path d="M630.461,184.962l-0,180.793l-156.57,90.398l-0,-180.795l156.57,-90.396Z" style="fill:#c5e8d3;stroke:#000;stroke-width:8.33px;"/><path d="M473.891,456.153l-156.577,-90.398l0,-180.794l156.577,90.397l-0,180.795Z" style="fill:#b3e0c6;stroke:#000;stroke-width:8.33px;"/><path d="M630.461,184.962l-156.57,90.396l-156.577,-90.396l-156.57,-90.397l156.57,-90.398l313.147,180.795Z" style="fill:#d7efe1;stroke:#000;stroke-width:8.33px;"/><path d="M317.314,184.962l-0,180.793l-156.57,90.398l-0,-180.795l156.57,-90.396Z" style="fill:#ebcccc;stroke:#000;stroke-width:8.33px;"/><path d="M4.167,184.962l156.577,90.396l-0,180.795l-156.577,-90.398l-0,-180.793Z" style="fill:#e4b9b9;stroke:#000;stroke-width:8.33px;"/><path d="M160.744,94.565l156.57,90.396l-156.57,90.397l-156.577,-90.396l156.577,-90.397Z" style="fill:#f2dede;stroke:#000;stroke-width:8.33px;"/></svg>